<?xml version="1.0" encoding="iso-8859-1"?>
<!-- Generator: Adobe Illustrator 19.0.0, SVG Export Plug-In . SVG Version: 6.00 Build 0)  -->
<svg version="1.1" id="Layer_1" xmlns="http://www.w3.org/2000/svg" xmlns:xlink="http://www.w3.org/1999/xlink" x="0px" y="0px"
	 viewBox="0 0 496 496" style="enable-background:new 0 0 496 496;" xml:space="preserve">
<g>
	<g>
		<g>
			<path d="M120,96c0-13.232-10.768-24-24-24c-3.696,0-7.152,0.904-10.28,2.408L53.656,42.344L42.344,53.656L74.408,85.72
				C72.904,88.848,72,92.304,72,96c0,13.232,10.768,24,24,24c3.696,0,7.152-0.904,10.28-2.408l32.064,32.064l11.312-11.312
				l-32.064-32.064C119.096,103.152,120,99.696,120,96z M96,104c-4.416,0-8-3.584-8-8s3.584-8,8-8s8,3.584,8,8S100.416,104,96,104z"
				/>
			<path d="M104,377.472V336H88v41.472c-9.288,3.312-16,12.112-16,22.528s6.712,19.216,16,22.528V464h16v-41.472
				c9.288-3.312,16-12.112,16-22.528S113.288,380.784,104,377.472z M96,408c-4.416,0-8-3.584-8-8c0-4.416,3.584-8,8-8s8,3.584,8,8
				C104,404.416,100.416,408,96,408z"/>
			<path d="M400,120c10.416,0,19.216-6.712,22.528-16H464V88h-41.472c-3.312-9.288-12.112-16-22.528-16s-19.216,6.712-22.528,16H336
				v16h41.472C380.784,113.288,389.584,120,400,120z M400,88c4.416,0,8,3.584,8,8s-3.584,8-8,8c-4.416,0-8-3.584-8-8
				S395.584,88,400,88z"/>
			<path d="M400,304c-15.312,0-29.736,3.696-42.592,10.096C369.128,294.768,376,272.2,376,248s-6.872-46.768-18.592-66.096
				C370.264,188.304,384.688,192,400,192c52.936,0,96-43.064,96-96c0-52.936-43.064-96-96-96c-52.936,0-96,43.064-96,96
				c0,15.312,3.696,29.736,10.096,42.592C294.768,126.872,272.2,120,248,120s-46.768,6.872-66.096,18.592
				C188.304,125.736,192,111.312,192,96c0-52.936-43.064-96-96-96C43.064,0,0,43.064,0,96s43.064,96,96,96
				c15.312,0,29.736-3.696,42.592-10.096C126.872,201.232,120,223.8,120,248s6.872,46.768,18.592,66.096
				C125.736,307.696,111.312,304,96,304c-52.936,0-96,43.064-96,96c0,52.936,43.064,96,96,96c52.936,0,96-43.064,96-96
				c0-15.312-3.696-29.736-10.096-42.592C201.232,369.128,223.8,376,248,376s46.768-6.872,66.096-18.592
				C307.696,370.264,304,384.688,304,400c0,52.936,43.064,96,96,96c52.936,0,96-43.064,96-96C496,347.064,452.936,304,400,304z
				 M400,16c44.112,0,80,35.888,80,80s-35.888,80-80,80s-80-35.888-80-80S355.888,16,400,16z M96,176c-44.112,0-80-35.888-80-80
				s35.888-80,80-80s80,35.888,80,80S140.112,176,96,176z M96,480c-44.112,0-80-35.888-80-80s35.888-80,80-80s80,35.888,80,80
				S140.112,480,96,480z M248,360c-61.76,0-112-50.24-112-112s50.24-112,112-112s112,50.24,112,112S309.76,360,248,360z M400,480
				c-44.112,0-80-35.888-80-80s35.888-80,80-80s80,35.888,80,80S444.112,480,400,480z"/>
			<path d="M442.344,346.344l-32.064,32.064C407.152,376.904,403.696,376,400,376c-13.232,0-24,10.768-24,24
				c0,3.696,0.904,7.152,2.408,10.28l-32.064,32.064l11.312,11.312l32.064-32.064c3.128,1.504,6.584,2.408,10.28,2.408
				c13.232,0,24-10.768,24-24c0-3.696-0.904-7.152-2.408-10.28l32.064-32.064L442.344,346.344z M400,408c-4.416,0-8-3.584-8-8
				c0-4.416,3.584-8,8-8c4.416,0,8,3.584,8,8C408,404.416,404.416,408,400,408z"/>
			<path d="M248,152c-39.704,0-72,32.296-72,72v3.184c0,15.312,4.768,29.952,13.776,42.344L248,349.6l58.224-80.072
				C315.232,257.144,320,242.504,320,227.184V224C320,184.296,287.704,152,248,152z M304,227.184
				c0,11.904-3.704,23.296-10.712,32.936L248,322.4l-45.288-62.272c-7.008-9.64-10.712-21.032-10.712-32.944V224
				c0-30.872,25.128-56,56-56s56,25.128,56,56V227.184z"/>
			<path d="M248,184c-22.056,0-40,17.944-40,40c0,22.056,17.944,40,40,40c22.056,0,40-17.944,40-40C288,201.944,270.056,184,248,184
				z M248,248c-13.232,0-24-10.768-24-24s10.768-24,24-24s24,10.768,24,24S261.232,248,248,248z"/>
		</g>
	</g>
</g>
<g>
</g>
<g>
</g>
<g>
</g>
<g>
</g>
<g>
</g>
<g>
</g>
<g>
</g>
<g>
</g>
<g>
</g>
<g>
</g>
<g>
</g>
<g>
</g>
<g>
</g>
<g>
</g>
<g>
</g>
</svg>
