<svg id="visual" viewBox="0 0 960 540" width="960" height="540" xmlns="http://www.w3.org/2000/svg" xmlns:xlink="http://www.w3.org/1999/xlink" version="1.1"><path d="M0 389L22.8 393.7C45.7 398.3 91.3 407.7 137 402.5C182.7 397.3 228.3 377.7 274 384.8C319.7 392 365.3 426 411.2 425.7C457 425.3 503 390.7 548.8 389.7C594.7 388.7 640.3 421.3 686 427.3C731.7 433.3 777.3 412.7 823 398.8C868.7 385 914.3 378 937.2 374.5L960 371L960 541L937.2 541C914.3 541 868.7 541 823 541C777.3 541 731.7 541 686 541C640.3 541 594.7 541 548.8 541C503 541 457 541 411.2 541C365.3 541 319.7 541 274 541C228.3 541 182.7 541 137 541C91.3 541 45.7 541 22.8 541L0 541Z" fill="#0066FF" stroke-linecap="round" stroke-linejoin="miter"></path></svg>